<svg xmlns="http://www.w3.org/2000/svg" width="150" height="50" viewBox="0,0,150,50"><path fill="#ddb84a" d="M56.51 34.63L56.51 34.64L56.60 34.72Q56.56 38.26 53.40 39.56L53.52 39.68L53.35 39.50Q51.61 40.46 47.19 40.62L47.09 40.52L47.11 40.54Q42.26 40.59 40.01 39.41L40.14 39.55L40.09 39.49Q38.29 38.22 38.44 34.87L38.39 34.83L38.46 34.90Q38.43 34.21 38.62 32.23L38.56 32.18L38.62 32.24Q38.67 30.58 38.67 29.59L38.76 29.68L38.69 29.60Q38.76 21.67 34.57 14.25L34.61 14.29L34.49 14.17Q35.59 14.78 38.56 15.85L38.72 16.00L38.67 15.96Q41.49 22.62 41.49 30.01L41.48 30.00L41.46 29.98Q41.52 30.64 41.42 31.82L41.55 31.94L41.54 31.94Q41.32 32.99 41.32 33.60L41.43 33.72L41.37 33.66Q41.35 35.92 42.91 36.91L42.88 36.88L42.93 36.92Q44.48 37.63 47.44 37.63L47.49 37.68L47.57 37.76Q50.23 37.80 51.87 36.62L51.75 36.50L51.72 36.47Q53.71 35.26 53.56 32.75L53.45 32.64L53.42 32.61Q53.41 31.30 53.41 29.97L53.37 29.93L53.39 29.95Q53.40 22.91 55.79 16.40L55.71 16.32L58.02 15.89L57.86 15.73Q58.87 15.48 59.97 15.02L59.96 15.01L60.05 15.10Q56.22 22.13 56.22 29.70L56.30 29.77L56.24 29.71Q56.24 30.55 56.37 32.19L56.38 32.20L56.42 32.24Q56.59 33.91 56.59 34.71ZM58.74 35.61L58.73 35.60L58.79 35.66Q57.89 30.68 58.61 25.58L58.64 25.61L58.66 25.63Q59.24 20.26 61.63 15.89L61.76 16.01L61.79 16.05Q61.15 16.32 59.70 16.96L59.72 16.98L59.58 16.84Q60.09 16.14 60.89 14.57L60.71 14.39L60.71 14.39Q57.34 15.71 55.44 16.05L55.41 16.02L55.54 16.15Q53.00 22.48 53.00 29.75L53.13 29.88L52.98 29.74Q53.15 31.27 53.23 32.68L53.23 32.69L53.16 32.61Q53.28 34.98 51.49 36.20L51.43 36.14L51.44 36.15Q50.05 37.31 47.54 37.35L47.62 37.43L47.43 37.24Q44.79 37.42 43.34 36.66L43.31 36.62L43.27 36.58Q43.14 36.03 43.06 35.57L43.14 35.66L43.20 35.71Q43.09 35.14 43.20 34.65L43.17 34.62L43.25 34.70Q43.45 32.34 43.45 30.02L43.38 29.95L43.50 30.07Q43.47 24.22 41.95 18.32L41.98 18.35L41.84 18.21Q41.22 18.20 39.81 17.86L39.75 17.79L39.86 17.90Q39.43 16.56 38.97 15.65L38.98 15.65L38.97 15.65Q36.32 14.93 33.92 13.56L33.88 13.53L33.87 13.51Q38.36 20.97 38.36 29.69L38.35 29.68L38.34 29.68Q38.39 31.36 38.24 33.08L38.33 33.16L38.32 33.15Q38.03 35.49 38.11 36.67L38.22 36.79L38.08 36.64Q38.26 38.62 39.52 39.76L39.57 39.81L39.57 39.81Q40.44 42.17 45.08 42.55L45.19 42.65L45.10 42.56Q47.21 42.73 49.34 42.81L49.43 42.89L49.31 42.78Q54.77 43.06 57.55 42.11L57.55 42.10L57.56 42.11Q59.22 41.30 59.22 39.24L59.16 39.18L59.09 39.12Q59.25 38.13 58.79 35.66Z"/><path d="M4 13 C69 5,89 30,141 47" stroke="#9d82ec" fill="none"/><path fill="#db5bdb" d="M122.78 32.08L113.68 22.22L113.65 22.19Q114.54 25.94 114.54 29.67L114.49 29.61L114.46 29.58Q114.40 35.50 112.34 41.06L112.48 41.19L112.47 41.18Q111.31 41.36 109.07 42.12L109.01 42.06L109.08 42.13Q111.91 36.36 111.91 29.66L111.89 29.64L111.96 29.71Q111.87 20.98 107.38 13.56L107.40 13.57L107.32 13.50Q107.85 13.76 108.54 14.18L108.47 14.11L108.58 14.22Q120.63 25.40 128.47 34.65L128.43 34.61L128.46 34.63Q128.06 32.10 128.06 29.67L128.20 29.81L128.15 29.76Q128.13 22.50 130.64 16.30L130.70 16.36L130.71 16.36Q132.95 15.76 134.55 15.07L134.66 15.18L134.63 15.15Q131.25 21.24 130.94 28.40L131.00 28.46L130.95 28.41Q130.70 35.81 133.67 41.98L133.54 41.85L133.70 42.01Q133.02 41.82 132.60 41.63L132.72 41.75L132.71 41.74Q128.11 37.75 122.89 32.19L122.84 32.14ZM136.33 45.21L136.21 45.09L136.27 45.15Q136.74 45.31 137.16 45.50L137.16 45.51L137.96 45.82L138.00 45.85Q132.74 38.81 132.74 29.44L132.81 29.51L132.84 29.54Q132.92 22.39 136.23 16.14L136.15 16.06L136.22 16.13Q135.49 16.28 134.08 16.89L134.14 16.94L134.11 16.91Q134.54 16.13 135.38 14.56L135.34 14.53L135.23 14.42Q132.80 15.34 130.36 15.91L130.33 15.87L130.33 15.87Q127.81 22.45 127.81 29.88L127.71 29.77L127.71 29.77Q127.85 31.78 128.04 33.76L127.95 33.67L127.89 33.61Q123.30 27.99 118.54 23.39L118.53 23.37L108.46 13.68L108.41 13.63Q107.98 13.47 106.76 12.90L106.77 12.91L106.74 12.88Q111.45 20.45 111.45 29.54L111.65 29.74L111.47 29.56Q111.50 36.71 108.42 42.73L108.42 42.73L108.55 42.86Q108.68 42.57 110.31 41.96L110.39 42.03L110.39 42.03Q110.05 42.80 109.21 44.28L109.31 44.38L109.36 44.44Q110.53 43.74 113.99 42.94L114.08 43.03L114.05 43.00Q116.34 36.83 116.34 29.64L116.38 29.67L116.38 29.68Q116.33 27.53 116.10 25.40L116.23 25.53L116.25 25.55Q127.62 38.26 136.23 45.11Z"/><path fill="#eca55f" d="M95.55 40.29L95.39 40.13L95.56 40.30Q92.07 40.39 90.44 39.86L90.46 39.88L90.35 39.78Q88.49 39.25 88.19 35.86L88.12 35.79L89.60 34.76L89.56 34.72Q90.20 34.10 90.96 33.60L90.96 33.61L91.04 33.69Q90.82 35.63 92.42 36.85L92.46 36.89L92.33 36.77Q93.62 37.79 95.76 37.60L95.85 37.69L95.77 37.61Q100.11 37.16 99.92 33.62L100.00 33.70L100.00 33.70Q99.78 31.38 97.15 30.16L97.27 30.28L97.27 30.28Q94.32 29.13 91.96 27.91L92.08 28.03L91.89 27.84Q89.41 26.57 88.42 21.89L88.48 21.95L88.39 21.86Q88.40 21.53 88.28 20.77L88.28 20.77L88.24 20.72Q88.20 19.99 88.27 19.42L88.24 19.39L88.27 19.42Q88.32 17.72 89.58 17.26L89.67 17.36L89.72 17.41Q91.94 16.36 95.94 16.55L95.98 16.58L96.08 16.68Q97.76 16.65 98.56 16.73L98.75 16.91L98.57 16.74Q100.06 16.94 101.13 17.39L101.28 17.54L101.15 17.42Q103.23 17.86 103.46 20.33L103.55 20.42L103.55 20.42Q102.52 21.14 100.31 22.48L100.32 22.48L100.34 22.51Q99.95 19.53 95.57 19.53L95.48 19.44L95.54 19.50Q93.60 19.46 92.61 20.14L92.50 20.03L92.66 20.19Q91.36 20.57 91.59 22.36L91.60 22.37L91.72 22.49Q91.99 24.70 94.96 26.23L94.97 26.23L94.91 26.17Q95.49 26.45 99.98 28.08L99.95 28.06L99.95 28.05Q102.56 29.52 102.98 33.90L102.90 33.82L102.87 33.79Q102.88 33.96 102.96 35.21L103.12 35.37L102.99 35.24Q103.13 38.09 101.57 39.19L101.57 39.19L101.63 39.25Q99.72 40.16 95.54 40.28ZM97.76 42.58L97.87 42.69L97.76 42.58Q99.27 42.72 101.25 42.72L101.20 42.67L101.23 42.70Q103.39 42.77 104.65 42.35L104.62 42.31L104.60 42.30Q105.76 41.40 105.68 39.61L105.69 39.62L105.72 39.64Q105.72 38.70 105.34 36.64L105.37 36.68L105.25 36.55Q104.34 31.88 102.25 30.01L102.22 29.98L102.33 30.09Q101.49 28.46 100.16 27.73L100.15 27.72L94.81 25.62L94.87 25.68Q94.57 25.53 94.11 25.30L94.17 25.35L94.08 25.00L93.94 24.52L93.87 24.45Q93.83 23.15 94.97 22.54L94.94 22.51L95.00 22.57Q95.75 21.99 97.47 21.80L97.35 21.68L97.46 21.80Q98.61 21.69 99.75 22.14L99.70 22.09L99.77 22.16Q99.79 22.22 99.98 23.06L99.95 23.03L99.97 23.05Q100.17 22.90 100.66 22.68L100.59 22.60L100.68 22.69Q101.44 23.64 101.55 24.78L101.41 24.64L101.43 24.66Q101.50 24.62 105.16 22.03L105.23 22.10L105.33 22.20Q105.05 19.57 103.61 18.88L103.46 18.74L103.46 18.73Q102.87 17.46 101.42 16.93L101.60 17.10L101.52 17.02Q99.31 16.30 96.11 16.30L96.11 16.30L96.03 16.22Q91.13 16.23 89.26 16.91L89.30 16.95L89.15 16.80Q87.89 17.32 87.77 19.00L87.83 19.05L87.81 19.04Q87.74 19.53 88.15 21.74L88.09 21.68L88.19 21.78Q88.95 25.62 91.12 27.86L91.09 27.83L91.06 27.80Q91.82 29.47 93.32 30.16L93.34 30.18L93.31 30.15Q94.83 30.85 98.75 32.41L98.72 32.38L98.65 32.35L99.36 32.76L99.47 32.90L99.52 32.95Q99.51 33.21 99.55 33.56L99.72 33.73L99.72 33.72Q99.75 37.14 95.83 37.30L95.80 37.26L95.76 37.22Q94.62 37.27 93.33 36.89L93.38 36.94L93.41 36.97Q93.05 36.11 93.05 35.39L93.01 35.35L93.00 35.34Q93.05 35.12 93.09 34.86L93.00 34.78L93.02 34.79Q92.56 34.98 91.76 35.47L91.89 35.60L91.92 35.63Q91.41 34.51 91.56 33.14L91.54 33.12L91.57 33.15Q89.48 34.34 87.88 35.75L87.81 35.67L87.84 35.71Q87.90 36.52 87.97 37.55L87.99 37.57L87.93 37.50Q88.35 39.33 89.64 40.09L89.61 40.06L89.56 40.01Q90.73 41.79 93.28 42.17L93.38 42.27L93.39 42.28Q94.97 42.53 97.90 42.72Z"/><path fill="#e1aa74" d="M72.06 30.49L72.04 30.47L72.03 30.45Q68.60 36.84 65.17 40.80L65.00 40.63L65.07 40.71Q63.25 41.16 60.81 42.04L60.80 42.02L60.76 41.98Q65.68 36.40 70.44 27.99L70.38 27.93L70.46 28.00Q65.89 21.08 59.91 14.68L59.80 14.57L59.84 14.61Q62.89 15.95 65.18 16.44L65.14 16.41L65.16 16.42Q69.78 21.62 72.22 25.58L72.20 25.56L72.27 25.63Q74.60 21.03 78.52 16.62L78.60 16.69L78.63 16.72Q80.19 16.38 83.38 15.62L83.33 15.56L83.33 15.56Q77.40 22.16 73.94 28.10L73.92 28.08L73.81 27.97Q78.99 36.65 83.37 41.22L83.47 41.32L83.34 41.19Q80.77 40.42 78.68 40.19L78.74 40.24L78.74 40.24Q75.87 37.18 71.95 30.37ZM78.61 40.53L78.57 40.50L78.66 40.58Q78.89 40.55 79.35 40.66L79.46 40.78L79.47 40.79Q80.12 41.40 81.64 43.00L81.80 43.16L81.77 43.13Q85.04 43.84 88.08 45.21L88.03 45.16L88.22 45.34Q81.06 38.72 75.96 29.96L75.95 29.96L75.91 29.91Q79.62 23.23 85.52 16.38L85.51 16.37L85.62 16.48Q84.18 17.13 82.01 17.66L81.87 17.53L81.90 17.56Q82.86 16.73 84.61 14.94L84.60 14.93L84.58 14.91Q82.10 15.71 78.41 16.28L78.39 16.26L78.46 16.32Q74.95 20.04 72.36 24.35L72.38 24.37L72.38 24.37Q71.57 22.88 70.39 21.39L70.29 21.29L68.11 18.47L67.71 18.45L67.58 18.32Q67.49 18.37 67.26 18.30L67.36 18.40L67.25 18.29Q66.70 17.59 65.22 16.03L65.03 15.84L65.10 15.91Q61.27 15.01 58.68 13.64L58.75 13.71L58.74 13.70Q65.51 21.00 70.07 28.04L70.08 28.05L70.03 28.00Q65.48 36.12 59.73 42.71L59.78 42.76L59.81 42.78Q61.09 42.08 63.22 41.51L63.18 41.47L61.88 42.92L62.00 43.04Q62.04 43.08 60.71 44.41L60.58 44.28L60.66 44.36Q63.55 43.18 66.71 42.68L66.77 42.75L66.86 42.84Q70.90 38.35 73.49 33.59L73.47 33.57L73.30 33.40Q75.90 37.68 78.61 40.53Z"/><path fill="#7ae4ca" d="M21.87 40.17L21.92 40.22L19.45 33.30L19.52 33.37Q15.03 20.66 9.09 14.26L9.08 14.25L9.21 14.38Q11.24 15.45 13.83 16.06L13.69 15.93L13.87 16.11Q18.87 22.25 23.21 35.01L23.32 35.11L23.21 35.00Q26.33 26.97 27.02 25.37L27.00 25.35L26.98 25.33Q29.32 19.68 32.14 16.37L32.23 16.46L32.21 16.44Q34.31 16.10 36.93 15.22L36.94 15.24L36.98 15.27Q32.42 19.88 29.37 27.11L29.33 27.07L29.25 26.99Q27.79 30.60 24.10 40.12L24.18 40.20L24.18 40.20Q23.57 40.16 23.00 40.12L22.98 40.10L22.99 40.11Q22.48 40.17 21.90 40.21ZM26.90 42.61L26.85 42.56L26.97 42.69Q29.65 32.57 31.21 28.54L31.26 28.58L31.21 28.53Q34.23 20.86 38.65 15.98L38.76 16.09L38.59 15.93Q37.66 16.40 35.56 17.13L35.55 17.11L36.70 15.79L36.63 15.72Q37.29 15.12 37.90 14.48L37.93 14.51L37.86 14.44Q34.98 15.36 31.97 15.93L32.11 16.07L32.11 16.07Q27.59 21.26 23.71 32.72L23.86 32.87L23.78 32.79Q20.14 22.68 16.94 18.31L16.89 18.25L16.94 18.30Q16.52 18.19 15.65 18.03L15.64 18.03L15.67 18.05Q15.36 17.60 13.76 15.54L13.79 15.57L13.82 15.60Q10.95 14.98 8.25 13.57L8.22 13.54L8.16 13.48Q14.80 20.58 19.18 33.37L19.13 33.32L19.18 33.37Q20.38 37.01 21.56 40.59L21.66 40.68L21.57 40.60Q21.90 40.62 22.74 40.51L22.86 40.63L22.82 40.59Q23.13 41.24 23.81 42.57L23.92 42.68L23.73 42.49Q24.69 42.53 25.41 42.61L25.44 42.64L25.37 42.56Q26.23 42.71 26.99 42.71Z"/><path d="M16 2 C60 39,83 29,130 10" stroke="#e38cb7" fill="none"/><path d="M6 29 C66 32,92 14,129 38" stroke="#e4e439" fill="none"/><path d="M20 47 C96 48,88 24,131 39" stroke="#43d443" fill="none"/><path d="M16 6 C54 18,57 7,137 36" stroke="#e86d6d" fill="none"/><path d="M5 7 C78 10,78 34,144 13" stroke="#92d1e7" fill="none"/></svg>